<mxfile host="65bd71144e">
    <diagram id="WVn5i_rbGQyrlR9jMlio" name="Page-1">
        <mxGraphModel dx="976" dy="749" grid="1" gridSize="10" guides="1" tooltips="1" connect="1" arrows="1" fold="1" page="1" pageScale="1" pageWidth="1100" pageHeight="850" background="none" math="0" shadow="1">
            <root>
                <mxCell id="0"/>
                <mxCell id="1" parent="0"/>
                <mxCell id="2" value="Macho Moods" style="rounded=0;whiteSpace=wrap;html=1;fontStyle=1;fontSize=48;labelBorderColor=none;shadow=0;glass=0;" vertex="1" parent="1">
                    <mxGeometry x="50" y="30" width="760" height="130" as="geometry"/>
                </mxCell>
                <mxCell id="4" value="&lt;font style=&quot;font-size: 28px;&quot;&gt;How are you feeling today?&lt;/font&gt;" style="rounded=0;whiteSpace=wrap;html=1;fontSize=30;glass=0;" vertex="1" parent="1">
                    <mxGeometry x="50" y="160" width="760" height="50" as="geometry"/>
                </mxCell>
                <mxCell id="6" value="" style="rounded=1;whiteSpace=wrap;html=1;fontSize=28;" vertex="1" parent="1">
                    <mxGeometry x="50" y="240" width="200" height="120" as="geometry"/>
                </mxCell>
                <mxCell id="8" value="" style="rounded=1;whiteSpace=wrap;html=1;fontSize=28;" vertex="1" parent="1">
                    <mxGeometry x="50" y="400" width="200" height="120" as="geometry"/>
                </mxCell>
                <mxCell id="9" value="" style="rounded=1;whiteSpace=wrap;html=1;fontSize=28;" vertex="1" parent="1">
                    <mxGeometry x="50" y="560" width="200" height="120" as="geometry"/>
                </mxCell>
                <mxCell id="10" value="" style="rounded=1;whiteSpace=wrap;html=1;fontSize=28;" vertex="1" parent="1">
                    <mxGeometry x="330" y="400" width="200" height="120" as="geometry"/>
                </mxCell>
                <mxCell id="11" value="" style="rounded=1;whiteSpace=wrap;html=1;fontSize=28;" vertex="1" parent="1">
                    <mxGeometry x="330" y="240" width="200" height="120" as="geometry"/>
                </mxCell>
                <mxCell id="12" value="" style="rounded=1;whiteSpace=wrap;html=1;fontSize=28;" vertex="1" parent="1">
                    <mxGeometry x="330" y="560" width="200" height="120" as="geometry"/>
                </mxCell>
                <mxCell id="13" value="" style="rounded=1;whiteSpace=wrap;html=1;fontSize=28;" vertex="1" parent="1">
                    <mxGeometry x="610" y="560" width="200" height="120" as="geometry"/>
                </mxCell>
                <mxCell id="14" value="" style="rounded=1;whiteSpace=wrap;html=1;fontSize=28;" vertex="1" parent="1">
                    <mxGeometry x="610" y="400" width="200" height="120" as="geometry"/>
                </mxCell>
                <mxCell id="15" value="" style="rounded=1;whiteSpace=wrap;html=1;fontSize=28;" vertex="1" parent="1">
                    <mxGeometry x="610" y="240" width="200" height="120" as="geometry"/>
                </mxCell>
                <mxCell id="16" value="&lt;font style=&quot;font-size: 9px;&quot;&gt;Macho Advice:&lt;/font&gt;" style="text;html=1;align=center;verticalAlign=middle;resizable=0;points=[];autosize=1;strokeColor=none;fillColor=none;fontSize=28;" vertex="1" parent="1">
                    <mxGeometry x="50" y="270" width="80" height="50" as="geometry"/>
                </mxCell>
                <mxCell id="17" value="&lt;font style=&quot;font-size: 9px;&quot;&gt;Macho Advice:&lt;/font&gt;" style="text;html=1;align=center;verticalAlign=middle;resizable=0;points=[];autosize=1;strokeColor=none;fillColor=none;fontSize=28;" vertex="1" parent="1">
                    <mxGeometry x="330" y="270" width="80" height="50" as="geometry"/>
                </mxCell>
                <mxCell id="18" value="&lt;font style=&quot;font-size: 9px;&quot;&gt;Macho Advice:&lt;/font&gt;" style="text;html=1;align=center;verticalAlign=middle;resizable=0;points=[];autosize=1;strokeColor=none;fillColor=none;fontSize=28;" vertex="1" parent="1">
                    <mxGeometry x="50" y="595" width="80" height="50" as="geometry"/>
                </mxCell>
                <mxCell id="19" value="&lt;font style=&quot;font-size: 9px;&quot;&gt;Macho Advice:&lt;/font&gt;" style="text;html=1;align=center;verticalAlign=middle;resizable=0;points=[];autosize=1;strokeColor=none;fillColor=none;fontSize=28;" vertex="1" parent="1">
                    <mxGeometry x="50" y="430" width="80" height="50" as="geometry"/>
                </mxCell>
                <mxCell id="20" value="&lt;font style=&quot;font-size: 9px;&quot;&gt;Macho Advice:&lt;/font&gt;" style="text;html=1;align=center;verticalAlign=middle;resizable=0;points=[];autosize=1;strokeColor=none;fillColor=none;fontSize=28;" vertex="1" parent="1">
                    <mxGeometry x="610" y="435" width="80" height="50" as="geometry"/>
                </mxCell>
                <mxCell id="21" value="&lt;font style=&quot;font-size: 9px;&quot;&gt;Macho Advice:&lt;/font&gt;" style="text;html=1;align=center;verticalAlign=middle;resizable=0;points=[];autosize=1;strokeColor=none;fillColor=none;fontSize=28;" vertex="1" parent="1">
                    <mxGeometry x="610" y="275" width="80" height="50" as="geometry"/>
                </mxCell>
                <mxCell id="22" value="&lt;font style=&quot;font-size: 9px;&quot;&gt;Macho Advice:&lt;/font&gt;" style="text;html=1;align=center;verticalAlign=middle;resizable=0;points=[];autosize=1;strokeColor=none;fillColor=none;fontSize=28;" vertex="1" parent="1">
                    <mxGeometry x="330" y="590" width="80" height="50" as="geometry"/>
                </mxCell>
                <mxCell id="23" value="&lt;font style=&quot;font-size: 9px;&quot;&gt;Macho Advice:&lt;/font&gt;" style="text;html=1;align=center;verticalAlign=middle;resizable=0;points=[];autosize=1;strokeColor=none;fillColor=none;fontSize=28;" vertex="1" parent="1">
                    <mxGeometry x="330" y="435" width="80" height="50" as="geometry"/>
                </mxCell>
                <mxCell id="24" value="&lt;font style=&quot;font-size: 9px;&quot;&gt;Macho Advice:&lt;/font&gt;" style="text;html=1;align=center;verticalAlign=middle;resizable=0;points=[];autosize=1;strokeColor=none;fillColor=none;fontSize=28;" vertex="1" parent="1">
                    <mxGeometry x="610" y="595" width="80" height="50" as="geometry"/>
                </mxCell>
                <mxCell id="25" value="Tip 1:&lt;br&gt;&lt;br&gt;&lt;br&gt;&lt;br&gt;&lt;br&gt;&lt;br&gt;Tip 2:" style="text;html=1;align=center;verticalAlign=middle;resizable=0;points=[];autosize=1;strokeColor=none;fillColor=none;fontSize=9;" vertex="1" parent="1">
                    <mxGeometry x="190" y="255" width="50" height="90" as="geometry"/>
                </mxCell>
                <mxCell id="29" value="Tip 1:&lt;br&gt;&lt;br&gt;&lt;br&gt;&lt;br&gt;&lt;br&gt;&lt;br&gt;Tip 2:" style="text;html=1;align=center;verticalAlign=middle;resizable=0;points=[];autosize=1;strokeColor=none;fillColor=none;fontSize=9;" vertex="1" parent="1">
                    <mxGeometry x="190" y="415" width="50" height="90" as="geometry"/>
                </mxCell>
                <mxCell id="30" value="Tip 1:&lt;br&gt;&lt;br&gt;&lt;br&gt;&lt;br&gt;&lt;br&gt;&lt;br&gt;Tip 2:" style="text;html=1;align=center;verticalAlign=middle;resizable=0;points=[];autosize=1;strokeColor=none;fillColor=none;fontSize=9;" vertex="1" parent="1">
                    <mxGeometry x="750" y="575" width="50" height="90" as="geometry"/>
                </mxCell>
                <mxCell id="31" value="Tip 1:&lt;br&gt;&lt;br&gt;&lt;br&gt;&lt;br&gt;&lt;br&gt;&lt;br&gt;Tip 2:" style="text;html=1;align=center;verticalAlign=middle;resizable=0;points=[];autosize=1;strokeColor=none;fillColor=none;fontSize=9;" vertex="1" parent="1">
                    <mxGeometry x="750" y="415" width="50" height="90" as="geometry"/>
                </mxCell>
                <mxCell id="32" value="Tip 1:&lt;br&gt;&lt;br&gt;&lt;br&gt;&lt;br&gt;&lt;br&gt;&lt;br&gt;Tip 2:" style="text;html=1;align=center;verticalAlign=middle;resizable=0;points=[];autosize=1;strokeColor=none;fillColor=none;fontSize=9;" vertex="1" parent="1">
                    <mxGeometry x="750" y="255" width="50" height="90" as="geometry"/>
                </mxCell>
                <mxCell id="33" value="Tip 1:&lt;br&gt;&lt;br&gt;&lt;br&gt;&lt;br&gt;&lt;br&gt;&lt;br&gt;Tip 2:" style="text;html=1;align=center;verticalAlign=middle;resizable=0;points=[];autosize=1;strokeColor=none;fillColor=none;fontSize=9;" vertex="1" parent="1">
                    <mxGeometry x="190" y="575" width="50" height="90" as="geometry"/>
                </mxCell>
                <mxCell id="34" value="Tip 1:&lt;br&gt;&lt;br&gt;&lt;br&gt;&lt;br&gt;&lt;br&gt;&lt;br&gt;Tip 2:" style="text;html=1;align=center;verticalAlign=middle;resizable=0;points=[];autosize=1;strokeColor=none;fillColor=none;fontSize=9;" vertex="1" parent="1">
                    <mxGeometry x="470" y="575" width="50" height="90" as="geometry"/>
                </mxCell>
                <mxCell id="35" value="Tip 1:&lt;br&gt;&lt;br&gt;&lt;br&gt;&lt;br&gt;&lt;br&gt;&lt;br&gt;Tip 2:" style="text;html=1;align=center;verticalAlign=middle;resizable=0;points=[];autosize=1;strokeColor=none;fillColor=none;fontSize=9;" vertex="1" parent="1">
                    <mxGeometry x="470" y="415" width="50" height="90" as="geometry"/>
                </mxCell>
                <mxCell id="36" value="Tip 1:&lt;br&gt;&lt;br&gt;&lt;br&gt;&lt;br&gt;&lt;br&gt;&lt;br&gt;Tip 2:" style="text;html=1;align=center;verticalAlign=middle;resizable=0;points=[];autosize=1;strokeColor=none;fillColor=none;fontSize=9;" vertex="1" parent="1">
                    <mxGeometry x="470" y="255" width="50" height="90" as="geometry"/>
                </mxCell>
                <mxCell id="39" value="&lt;font style=&quot;font-size: 15px;&quot;&gt;&lt;b&gt;&lt;u&gt;Love&lt;/u&gt;&lt;/b&gt;&lt;/font&gt;" style="text;html=1;align=center;verticalAlign=middle;resizable=0;points=[];autosize=1;strokeColor=none;fillColor=none;fontSize=9;" vertex="1" parent="1">
                    <mxGeometry x="120" y="240" width="60" height="30" as="geometry"/>
                </mxCell>
                <mxCell id="41" value="&lt;b style=&quot;&quot;&gt;&lt;u style=&quot;&quot;&gt;Joy&lt;/u&gt;&lt;/b&gt;" style="text;html=1;align=center;verticalAlign=middle;resizable=0;points=[];autosize=1;strokeColor=none;fillColor=none;fontSize=15;" vertex="1" parent="1">
                    <mxGeometry x="125" y="400" width="50" height="30" as="geometry"/>
                </mxCell>
                <mxCell id="42" value="&lt;u&gt;&lt;b&gt;Wonder&lt;/b&gt;&lt;/u&gt;" style="text;html=1;align=center;verticalAlign=middle;resizable=0;points=[];autosize=1;strokeColor=none;fillColor=none;fontSize=15;" vertex="1" parent="1">
                    <mxGeometry x="110" y="560" width="80" height="30" as="geometry"/>
                </mxCell>
                <mxCell id="43" value="&lt;b&gt;&lt;u&gt;Calmness&lt;/u&gt;&lt;/b&gt;" style="text;html=1;align=center;verticalAlign=middle;resizable=0;points=[];autosize=1;strokeColor=none;fillColor=none;fontSize=15;" vertex="1" parent="1">
                    <mxGeometry x="385" y="240" width="90" height="30" as="geometry"/>
                </mxCell>
                <mxCell id="44" value="Anger" style="text;html=1;align=center;verticalAlign=middle;resizable=0;points=[];autosize=1;strokeColor=none;fillColor=none;fontSize=15;fontStyle=5;" vertex="1" parent="1">
                    <mxGeometry x="395" y="400" width="70" height="30" as="geometry"/>
                </mxCell>
                <mxCell id="45" value="&lt;b&gt;&lt;u&gt;Courage&lt;/u&gt;&lt;/b&gt;" style="text;html=1;align=center;verticalAlign=middle;resizable=0;points=[];autosize=1;strokeColor=none;fillColor=none;fontSize=15;" vertex="1" parent="1">
                    <mxGeometry x="390" y="560" width="80" height="30" as="geometry"/>
                </mxCell>
                <mxCell id="47" value="&lt;b&gt;&lt;u&gt;Sadness&lt;/u&gt;&lt;/b&gt;" style="text;html=1;align=center;verticalAlign=middle;resizable=0;points=[];autosize=1;strokeColor=none;fillColor=none;fontSize=15;" vertex="1" parent="1">
                    <mxGeometry x="665" y="240" width="90" height="30" as="geometry"/>
                </mxCell>
                <mxCell id="48" value="&lt;u&gt;&lt;b&gt;Fear&lt;/b&gt;&lt;/u&gt;" style="text;html=1;align=center;verticalAlign=middle;resizable=0;points=[];autosize=1;strokeColor=none;fillColor=none;fontSize=15;" vertex="1" parent="1">
                    <mxGeometry x="680" y="400" width="60" height="30" as="geometry"/>
                </mxCell>
                <mxCell id="49" value="&lt;b&gt;&lt;u&gt;Disgust&lt;/u&gt;&lt;/b&gt;" style="text;html=1;align=center;verticalAlign=middle;resizable=0;points=[];autosize=1;strokeColor=none;fillColor=none;fontSize=15;" vertex="1" parent="1">
                    <mxGeometry x="670" y="560" width="80" height="30" as="geometry"/>
                </mxCell>
            </root>
        </mxGraphModel>
    </diagram>
</mxfile>